{
  "source": "C:\\Users\\Peter\\Desktop\\stuff\\MIUN\\quantitative_research\\video_compression\\videos\\BVI-HD\\BVI-HD_CDVL_videos\\ORIG\\Typing_1920x1080_60fps.mp4",
  "output": "C:\\Users\\Peter\\Desktop\\stuff\\MIUN\\quantitative_research\\video_compression\\compressed_videos\\BVI-HD\\hevc\\8\\Typing_1920x1080_60fps_hevc.mp4",
  "codec": "hevc",
  "ok": "Input #0, mov,mp4,m4a,3gp,3g2,mj2, from 'C:\\Users\\Peter\\Desktop\\stuff\\MIUN\\quantitative_research\\video_compression\\videos\\BVI-HD\\BVI-HD_CDVL_videos\\ORIG\\Typing_1920x1080_60fps.mp4':\n  Metadata:\n    major_brand     : isom\n    minor_version   : 512\n    compatible_brands: isomiso2avc1mp41\n    encoder         : Lavf54.28.101\n  Duration: 00:00:05.00, start: 0.000000, bitrate: 203453 kb/s\n  Stream #0:0[0x1](und): Video: h264 (High 4:4:4 Predictive) (avc1 / 0x31637661), yuv420p(progressive), 1920x1080, 203448 kb/s, 60 fps, 60 tbr, 60 tbn (default)\n    Metadata:\n      handler_name    : VideoHandler\n      vendor_id       : [0][0][0][0]\n[out#0/mp4 @ 000001cad413a600] Codec AVOption b:a (set bitrate (in bits/s)) has not been used for any stream. The most likely reason is either wrong type (e.g. a video option with no video streams) or that it is a private option of some decoder which was not actually used for any stream.\nStream mapping:\n  Stream #0:0 -> #0:0 (h264 (native) -> hevc (libx265))\nPress [q] to stop, [?] for help\n[libx265 @ 000001cad47a00c0] Unknown option: \"aq-mode.\nx265 [info]: HEVC encoder version 4.1+190-8f11c33ac\nx265 [info]: build info [Windows][GCC 15.1.0][64 bit] 10bit\nx265 [info]: using cpu capabilities: MMX2 SSE2Fast LZCNT SSSE3 SSE4.2 AVX FMA3 BMI2 AVX2\nx265 [info]: Main 10 profile, Level-4.1 (Main tier)\nx265 [info]: Thread pool created using 12 threads\nx265 [info]: Slices                              : 1\nx265 [info]: frame threads / pool features       : 3 / wpp(17 rows)\nx265 [info]: Coding QT: max CU size, min CU size : 64 / 8\nx265 [info]: Residual QT: max TU size, max depth : 32 / 1 inter / 1 intra\nx265 [info]: ME / range / subpel / merge         : star / 57 / 3 / 3\nx265 [info]: Keyframe min / max / scenecut / bias  : 25 / 250 / 40 / 5.00 \nx265 [info]: Lookahead / bframes / badapt        : 25 / 4 / 2\nx265 [info]: b-pyramid / weightp / weightb       : 1 / 1 / 0\nx265 [info]: References / ref-limit  cu / depth  : 4 / on / on\nx265 [info]: AQ: mode / str / qg-size / cu-tree  : 2 / 1.0 / 32 / 1\nx265 [info]: Rate Control / qCompress            : ABR-8000 kbps / 0.60\nx265 [info]: VBV/HRD buffer / max-rate / init    : 8000 / 8000 / 0.750\nx265 [info]: tools: rect limit-modes rd=4 psy-rd=2.00 rdoq=2 psy-rdoq=1.00\nx265 [info]: tools: rskip mode=1 signhide tmvp strong-intra-smoothing lslices=4\nx265 [info]: tools: deblock sao dhdr10-info\nOutput #0, mp4, to 'C:\\Users\\Peter\\Desktop\\stuff\\MIUN\\quantitative_research\\video_compression\\compressed_videos\\BVI-HD\\hevc\\8\\Typing_1920x1080_60fps_hevc.mp4':\n  Metadata:\n    major_brand     : isom\n    minor_version   : 512\n    compatible_brands: isomiso2avc1mp41\n    encoder         : Lavf62.3.100\n  Stream #0:0(und): Video: hevc (hev1 / 0x31766568), yuv420p10le(tv, progressive), 1920x1080, q=2-31, 8000 kb/s, 60 fps, 15360 tbn (default)\n    Metadata:\n      encoder         : Lavc62.11.100 libx265\n      handler_name    : VideoHandler\n      vendor_id       : [0][0][0][0]\n    Side data:\n      cpb: bitrate max/min/avg: 8000000/0/8000000 buffer size: 8000000 vbv_delay: N/A\nframe=    0 fps=0.0 q=0.0 size=       0KiB time=N/A bitrate=N/A speed=N/A elapsed=0:00:00.53    \nframe=    0 fps=0.0 q=0.0 size=       0KiB time=N/A bitrate=N/A speed=N/A elapsed=0:00:01.12    \nframe=    0 fps=0.0 q=0.0 size=       0KiB time=N/A bitrate=N/A speed=N/A elapsed=0:00:01.65    \nframe=    0 fps=0.0 q=0.0 size=       0KiB time=N/A bitrate=N/A speed=N/A elapsed=0:00:02.19    \nframe=    0 fps=0.0 q=0.0 size=       0KiB time=N/A bitrate=N/A speed=N/A elapsed=0:00:02.70    \nframe=    0 fps=0.0 q=0.0 size=       0KiB time=N/A bitrate=N/A speed=N/A elapsed=0:00:03.22    \nframe=    0 fps=0.0 q=0.0 size=       0KiB time=N/A bitrate=N/A speed=N/A elapsed=0:00:03.74    \nframe=    0 fps=0.0 q=0.0 size=       0KiB time=N/A bitrate=N/A speed=N/A elapsed=0:00:04.27    \nframe=    0 fps=0.0 q=0.0 size=       0KiB time=N/A bitrate=N/A speed=N/A elapsed=0:00:04.78    \nframe=    0 fps=0.0 q=0.0 size=       0KiB time=N/A bitrate=N/A speed=N/A elapsed=0:00:05.29    \nframe=    0 fps=0.0 q=0.0 size=       0KiB time=N/A bitrate=N/A speed=N/A elapsed=0:00:05.82    \nframe=    0 fps=0.0 q=0.0 size=       0KiB time=N/A bitrate=N/A speed=N/A elapsed=0:00:06.34    \nframe=    0 fps=0.0 q=0.0 size=       0KiB time=N/A bitrate=N/A speed=N/A elapsed=0:00:06.87    \nframe=    0 fps=0.0 q=0.0 size=       0KiB time=N/A bitrate=N/A speed=N/A elapsed=0:00:07.39    \nframe=    0 fps=0.0 q=0.0 size=       0KiB time=N/A bitrate=N/A speed=N/A elapsed=0:00:07.91    \nframe=    1 fps=0.1 q=25.2 size=       0KiB time=-00:00:00.01 bitrate=N/A speed=N/A elapsed=0:00:08.44    \nframe=    1 fps=0.1 q=25.2 size=       0KiB time=-00:00:00.01 bitrate=N/A speed=N/A elapsed=0:00:08.97    \nframe=    2 fps=0.2 q=26.6 size=       0KiB time=00:00:00.00 bitrate=N/A speed=   0x elapsed=0:00:09.48    \nframe=    3 fps=0.3 q=33.1 size=       0KiB time=00:00:00.01 bitrate=  21.1kbits/s speed=0.00166x elapsed=0:00:10.01    \nframe=    3 fps=0.3 q=33.1 size=       0KiB time=00:00:00.01 bitrate=  21.1kbits/s speed=0.00158x elapsed=0:00:10.53    \nframe=    4 fps=0.4 q=33.2 size=       0KiB time=00:00:00.03 bitrate=  10.6kbits/s speed=0.00302x elapsed=0:00:11.04    \nframe=    4 fps=0.3 q=33.2 size=       0KiB time=00:00:00.03 bitrate=  10.6kbits/s speed=0.00288x elapsed=0:00:11.57    \nframe=    4 fps=0.3 q=33.2 size=       0KiB time=00:00:00.03 bitrate=  10.6kbits/s speed=0.00276x elapsed=0:00:12.08    \nframe=    4 fps=0.3 q=33.2 size=       0KiB time=00:00:00.03 bitrate=  10.6kbits/s speed=0.00265x elapsed=0:00:12.60    \nframe=    4 fps=0.3 q=33.2 size=       0KiB time=00:00:00.03 bitrate=  10.6kbits/s speed=0.00254x elapsed=0:00:13.11    \nframe=    5 fps=0.4 q=31.1 size=       0KiB time=00:00:00.05 bitrate=   7.0kbits/s speed=0.00367x elapsed=0:00:13.62    \nframe=    5 fps=0.4 q=31.1 size=       0KiB time=00:00:00.05 bitrate=   7.0kbits/s speed=0.00353x elapsed=0:00:14.14    \nframe=    6 fps=0.4 q=29.9 size=       0KiB time=00:00:00.06 bitrate=   5.3kbits/s speed=0.00454x elapsed=0:00:14.68    \nframe=    7 fps=0.5 q=23.8 size=       0KiB time=00:00:00.08 bitrate=   4.2kbits/s speed=0.00549x elapsed=0:00:15.19    \nframe=    7 fps=0.4 q=23.8 size=       0KiB time=00:00:00.08 bitrate=   4.2kbits/s speed=0.00531x elapsed=0:00:15.70    \nframe=    7 fps=0.4 q=23.8 size=       0KiB time=00:00:00.08 bitrate=   4.2kbits/s speed=0.00513x elapsed=0:00:16.22    \nframe=    8 fps=0.5 q=24.7 size=       0KiB time=00:00:00.10 bitrate=   3.5kbits/s speed=0.00597x elapsed=0:00:16.75    \nframe=    8 fps=0.5 q=24.7 size=       0KiB time=00:00:00.10 bitrate=   3.5kbits/s speed=0.00579x elapsed=0:00:17.27    \nframe=    9 fps=0.5 q=26.2 size=       0KiB time=00:00:00.11 bitrate=   3.0kbits/s speed=0.00656x elapsed=0:00:17.79    \nframe=    9 fps=0.5 q=26.2 size=       0KiB time=00:00:00.11 bitrate=   3.0kbits/s speed=0.00636x elapsed=0:00:18.35    \nframe=    9 fps=0.5 q=26.2 size=       0KiB time=00:00:00.11 bitrate=   3.0kbits/s speed=0.00618x elapsed=0:00:18.86    \nframe=    9 fps=0.5 q=26.2 size=       0KiB time=00:00:00.11 bitrate=   3.0kbits/s speed=0.00602x elapsed=0:00:19.38    \nframe=   10 fps=0.5 q=26.1 size=       0KiB time=00:00:00.13 bitrate=   2.6kbits/s speed=0.0067x elapsed=0:00:19.89    \nframe=   11 fps=0.5 q=22.5 size=       0KiB time=00:00:00.15 bitrate=   2.3kbits/s speed=0.00735x elapsed=0:00:20.41    \nframe=   12 fps=0.6 q=24.8 size=       0KiB time=00:00:00.16 bitrate=   2.1kbits/s speed=0.00797x elapsed=0:00:20.92    \nframe=   12 fps=0.6 q=24.8 size=       0KiB time=00:00:00.16 bitrate=   2.1kbits/s speed=0.00777x elapsed=0:00:21.44    \nframe=   12 fps=0.5 q=24.8 size=       0KiB time=00:00:00.16 bitrate=   2.1kbits/s speed=0.00759x elapsed=0:00:21.96    \nframe=   12 fps=0.5 q=24.8 size=       0KiB time=00:00:00.16 bitrate=   2.1kbits/s speed=0.00741x elapsed=0:00:22.47    \nframe=   13 fps=0.6 q=26.7 size=       0KiB time=00:00:00.18 bitrate=   1.9kbits/s speed=0.00798x elapsed=0:00:22.98    \nframe=   13 fps=0.6 q=26.7 size=       0KiB time=00:00:00.18 bitrate=   1.9kbits/s speed=0.0078x elapsed=0:00:23.51    \nframe=   13 fps=0.5 q=26.7 size=       0KiB time=00:00:00.18 bitrate=   1.9kbits/s speed=0.00763x elapsed=0:00:24.02    \nframe=   13 fps=0.5 q=26.7 size=       0KiB time=00:00:00.18 bitrate=   1.9kbits/s speed=0.00746x elapsed=0:00:24.57    \nframe=   14 fps=0.6 q=26.3 size=       0KiB time=00:00:00.20 bitrate=   1.8kbits/s speed=0.00796x elapsed=0:00:25.12    \nframe=   14 fps=0.5 q=26.3 size=       0KiB time=00:00:00.20 bitrate=   1.8kbits/s speed=0.0078x elapsed=0:00:25.64    \nframe=   14 fps=0.5 q=26.3 size=       0KiB time=00:00:00.20 bitrate=   1.8kbits/s speed=0.00764x elapsed=0:00:26.16    \nframe=   15 fps=0.6 q=21.3 size=       0KiB time=00:00:00.21 bitrate=   1.6kbits/s speed=0.00812x elapsed=0:00:26.68    \nframe=   15 fps=0.6 q=21.3 size=       0KiB time=00:00:00.21 bitrate=   1.6kbits/s speed=0.00796x elapsed=0:00:27.20    \nframe=   15 fps=0.5 q=21.3 size=       0KiB time=00:00:00.21 bitrate=   1.6kbits/s speed=0.00781x elapsed=0:00:27.73    \nframe=   16 fps=0.6 q=25.1 size=       0KiB time=00:00:00.23 bitrate=   1.5kbits/s speed=0.00826x elapsed=0:00:28.26    \nframe=   16 fps=0.6 q=25.1 size=       0KiB time=00:00:00.23 bitrate=   1.5kbits/s speed=0.00811x elapsed=0:00:28.78    \nframe=   16 fps=0.5 q=25.1 size=       0KiB time=00:00:00.23 bitrate=   1.5kbits/s speed=0.00796x elapsed=0:00:29.30    \nframe=   17 fps=0.6 q=26.8 size=       0KiB time=00:00:00.25 bitrate=   1.4kbits/s speed=0.00838x elapsed=0:00:29.82    \nframe=   17 fps=0.6 q=26.8 size=       0KiB time=00:00:00.25 bitrate=   1.4kbits/s speed=0.00824x elapsed=0:00:30.34    \nframe=   17 fps=0.6 q=26.8 size=       0KiB time=00:00:00.25 bitrate=   1.4kbits/s speed=0.0081x elapsed=0:00:30.87    \nframe=   18 fps=0.6 q=26.8 size=       0KiB time=00:00:00.26 bitrate=   1.3kbits/s speed=0.00849x elapsed=0:00:31.40    \nframe=   18 fps=0.6 q=26.8 size=       0KiB time=00:00:00.26 bitrate=   1.3kbits/s speed=0.00835x elapsed=0:00:31.92    \nframe=   18 fps=0.6 q=26.8 size=       0KiB time=00:00:00.26 bitrate=   1.3kbits/s speed=0.00822x elapsed=0:00:32.45    \nframe=   18 fps=0.5 q=26.8 size=       0KiB time=00:00:00.26 bitrate=   1.3kbits/s speed=0.00809x elapsed=0:00:32.95    \nframe=   19 fps=0.6 q=21.4 size=       0KiB time=00:00:00.28 bitrate=   1.2kbits/s speed=0.00846x elapsed=0:00:33.48    \nframe=   19 fps=0.6 q=21.4 size=       0KiB time=00:00:00.28 bitrate=   1.2kbits/s speed=0.00833x elapsed=0:00:34.01    \nframe=   19 fps=0.6 q=21.4 size=       0KiB time=00:00:00.28 bitrate=   1.2kbits/s speed=0.0082x elapsed=0:00:34.53    \nframe=   19 fps=0.5 q=21.4 size=       0KiB time=00:00:00.28 bitrate=   1.2kbits/s speed=0.00807x elapsed=0:00:35.08    \nframe=   20 fps=0.6 q=24.7 size=     256KiB time=00:00:00.30 bitrate=6991.7kbits/s speed=0.00842x elapsed=0:00:35.61    \nframe=   20 fps=0.6 q=24.7 size=     256KiB time=00:00:00.30 bitrate=6991.7kbits/s speed=0.0083x elapsed=0:00:36.13    \nframe=   20 fps=0.5 q=24.7 size=     256KiB time=00:00:00.30 bitrate=6991.7kbits/s speed=0.00818x elapsed=0:00:36.65    \nframe=   20 fps=0.5 q=24.7 size=     256KiB time=00:00:00.30 bitrate=6991.7kbits/s speed=0.00807x elapsed=0:00:37.19    \nframe=   20 fps=0.5 q=24.7 size=     256KiB time=00:00:00.30 bitrate=6991.7kbits/s speed=0.00795x elapsed=0:00:37.72    \nframe=   20 fps=0.5 q=24.7 size=     256KiB time=00:00:00.30 bitrate=6991.7kbits/s speed=0.00784x elapsed=0:00:38.25    \nframe=   21 fps=0.5 q=26.8 size=     256KiB time=00:00:00.31 bitrate=6623.7kbits/s speed=0.00817x elapsed=0:00:38.76    \nframe=   21 fps=0.5 q=26.8 size=     256KiB time=00:00:00.31 bitrate=6623.7kbits/s speed=0.00806x elapsed=0:00:39.30    \nframe=   21 fps=0.5 q=26.8 size=     256KiB time=00:00:00.31 bitrate=6623.7kbits/s speed=0.00795x elapsed=0:00:39.81    \nframe=   21 fps=0.5 q=26.8 size=     256KiB time=00:00:00.31 bitrate=6623.7kbits/s speed=0.00785x elapsed=0:00:40.34    \nframe=   21 fps=0.5 q=26.8 size=     256KiB time=00:00:00.31 bitrate=6623.7kbits/s speed=0.00775x elapsed=0:00:40.86    \nframe=   22 fps=0.5 q=26.6 size=     256KiB time=00:00:00.33 bitrate=6292.5kbits/s speed=0.00805x elapsed=0:00:41.39    \nframe=   22 fps=0.5 q=26.6 size=     256KiB time=00:00:00.33 bitrate=6292.5kbits/s speed=0.00795x elapsed=0:00:41.93    \nframe=   22 fps=0.5 q=26.6 size=     256KiB time=00:00:00.33 bitrate=6292.5kbits/s speed=0.00785x elapsed=0:00:42.46    \nframe=   23 fps=0.5 q=20.7 size=     256KiB time=00:00:00.35 bitrate=5992.9kbits/s speed=0.00814x elapsed=0:00:42.98    \nframe=   23 fps=0.5 q=20.7 size=     256KiB time=00:00:00.35 bitrate=5992.9kbits/s speed=0.00804x elapsed=0:00:43.52    \nframe=   23 fps=0.5 q=20.7 size=     256KiB time=00:00:00.35 bitrate=5992.9kbits/s speed=0.00795x elapsed=0:00:44.03    \nframe=   24 fps=0.5 q=23.4 size=     256KiB time=00:00:00.36 bitrate=5720.5kbits/s speed=0.00822x elapsed=0:00:44.58    \nframe=   24 fps=0.5 q=23.4 size=     256KiB time=00:00:00.36 bitrate=5720.5kbits/s speed=0.00813x elapsed=0:00:45.09    \nframe=   24 fps=0.5 q=23.4 size=     256KiB time=00:00:00.36 bitrate=5720.5kbits/s speed=0.00804x elapsed=0:00:45.61    \nframe=   25 fps=0.5 q=25.4 size=     256KiB time=00:00:00.38 bitrate=5471.8kbits/s speed=0.00831x elapsed=0:00:46.15    \nframe=   25 fps=0.5 q=25.4 size=     256KiB time=00:00:00.38 bitrate=5471.8kbits/s speed=0.00821x elapsed=0:00:46.70    \nframe=   25 fps=0.5 q=25.4 size=     256KiB time=00:00:00.38 bitrate=5471.8kbits/s speed=0.00811x elapsed=0:00:47.24    \nframe=   25 fps=0.5 q=25.4 size=     256KiB time=00:00:00.38 bitrate=5471.8kbits/s speed=0.00802x elapsed=0:00:47.77    \nframe=   25 fps=0.5 q=25.4 size=     256KiB time=00:00:00.38 bitrate=5471.8kbits/s speed=0.00794x elapsed=0:00:48.28    \nframe=   25 fps=0.5 q=25.4 size=     256KiB time=00:00:00.38 bitrate=5471.8kbits/s speed=0.00785x elapsed=0:00:48.80    \nframe=   26 fps=0.5 q=25.0 size=     256KiB time=00:00:00.40 bitrate=5243.8kbits/s speed=0.00811x elapsed=0:00:49.31    \nframe=   26 fps=0.5 q=25.0 size=     256KiB time=00:00:00.40 bitrate=5243.8kbits/s speed=0.00802x elapsed=0:00:49.86    \nframe=   26 fps=0.5 q=25.0 size=     256KiB time=00:00:00.40 bitrate=5243.8kbits/s speed=0.00793x elapsed=0:00:50.41    \nframe=   26 fps=0.5 q=25.0 size=     256KiB time=00:00:00.40 bitrate=5243.8kbits/s speed=0.00785x elapsed=0:00:50.97    \nframe=   26 fps=0.5 q=25.0 size=     256KiB time=00:00:00.40 bitrate=5243.8kbits/s speed=0.00776x elapsed=0:00:51.51    \nframe=   27 fps=0.5 q=25.1 size=     256KiB time=00:00:00.41 bitrate=5034.0kbits/s speed=0.008x elapsed=0:00:52.07    \nframe=   27 fps=0.5 q=25.1 size=     256KiB time=00:00:00.41 bitrate=5034.0kbits/s speed=0.00792x elapsed=0:00:52.63    \nframe=   28 fps=0.5 q=20.2 size=     256KiB time=00:00:00.43 bitrate=4840.4kbits/s speed=0.00814x elapsed=0:00:53.20    \nframe=   28 fps=0.5 q=20.2 size=     256KiB time=00:00:00.43 bitrate=4840.4kbits/s speed=0.00806x elapsed=0:00:53.73    \nframe=   28 fps=0.5 q=20.2 size=     256KiB time=00:00:00.43 bitrate=4840.4kbits/s speed=0.00799x elapsed=0:00:54.25    \nframe=   28 fps=0.5 q=20.2 size=     256KiB time=00:00:00.43 bitrate=4840.4kbits/s speed=0.00791x elapsed=0:00:54.80    \nframe=   28 fps=0.5 q=20.2 size=     256KiB time=00:00:00.43 bitrate=4840.4kbits/s speed=0.00783x elapsed=0:00:55.34    \nframe=   28 fps=0.5 q=20.2 size=     256KiB time=00:00:00.43 bitrate=4840.4kbits/s speed=0.00775x elapsed=0:00:55.90    \nframe=   29 fps=0.5 q=25.2 size=     256KiB time=00:00:00.45 bitrate=4661.1kbits/s speed=0.00797x elapsed=0:00:56.46    \nframe=   29 fps=0.5 q=25.2 size=     256KiB time=00:00:00.45 bitrate=4661.1kbits/s speed=0.00788x elapsed=0:00:57.09    \nframe=   29 fps=0.5 q=25.2 size=     256KiB time=00:00:00.45 bitrate=4661.1kbits/s speed=0.0078x elapsed=0:00:57.66    \nframe=   29 fps=0.5 q=25.2 size=     256KiB time=00:00:00.45 bitrate=4661.1kbits/s speed=0.00773x elapsed=0:00:58.23    \nframe=   30 fps=0.5 q=25.5 size=     256KiB time=00:00:00.46 bitrate=4494.6kbits/s speed=0.00794x elapsed=0:00:58.79    \nframe=   30 fps=0.5 q=25.5 size=     256KiB time=00:00:00.46 bitrate=4494.6kbits/s speed=0.00787x elapsed=0:00:59.31    \nframe=   30 fps=0.5 q=25.5 size=     256KiB time=00:00:00.46 bitrate=4494.6kbits/s speed=0.0078x elapsed=0:00:59.85    \nframe=   30 fps=0.5 q=25.5 size=     256KiB time=00:00:00.46 bitrate=4494.6kbits/s speed=0.00773x elapsed=0:01:00.37    \nframe=   30 fps=0.5 q=25.5 size=     256KiB time=00:00:00.46 bitrate=4494.6kbits/s speed=0.00766x elapsed=0:01:00.91    \nframe=   30 fps=0.5 q=25.5 size=     256KiB time=00:00:00.46 bitrate=4494.6kbits/s speed=0.00759x elapsed=0:01:01.46    \nframe=   30 fps=0.5 q=25.5 size=     256KiB time=00:00:00.46 bitrate=4494.6kbits/s speed=0.00753x elapsed=0:01:02.01    \nframe=   30 fps=0.5 q=25.5 size=     256KiB time=00:00:00.46 bitrate=4494.6kbits/s speed=0.00746x elapsed=0:01:02.53    \nframe=   31 fps=0.5 q=25.1 size=     256KiB time=00:00:00.48 bitrate=4339.7kbits/s speed=0.00767x elapsed=0:01:03.05    \nframe=   31 fps=0.5 q=25.1 size=     256KiB time=00:00:00.48 bitrate=4339.7kbits/s speed=0.0076x elapsed=0:01:03.58    \nframe=   31 fps=0.5 q=25.1 size=     256KiB time=00:00:00.48 bitrate=4339.7kbits/s speed=0.00753x elapsed=0:01:04.15    \nframe=   31 fps=0.5 q=25.1 size=     256KiB time=00:00:00.48 bitrate=4339.7kbits/s speed=0.00747x elapsed=0:01:04.67    \nframe=   32 fps=0.5 q=24.8 size=     256KiB time=00:00:00.50 bitrate=4195.0kbits/s speed=0.00767x elapsed=0:01:05.19    \nframe=   32 fps=0.5 q=24.8 size=     256KiB time=00:00:00.50 bitrate=4195.0kbits/s speed=0.00761x elapsed=0:01:05.71    \nframe=   32 fps=0.5 q=24.8 size=     256KiB time=00:00:00.50 bitrate=4195.0kbits/s speed=0.00755x elapsed=0:01:06.24    \nframe=   33 fps=0.5 q=20.4 size=     256KiB time=00:00:00.51 bitrate=4059.7kbits/s speed=0.00774x elapsed=0:01:06.77    \nframe=   34 fps=0.5 q=20.3 size=     256KiB time=00:00:00.53 bitrate=3932.8kbits/s speed=0.00793x elapsed=0:01:07.28    \nframe=   34 fps=0.5 q=20.3 size=     256KiB time=00:00:00.53 bitrate=3932.8kbits/s speed=0.00787x elapsed=0:01:07.80    \nframe=   35 fps=0.5 q=25.4 size=     512KiB time=00:00:00.55 bitrate=7626.6kbits/s speed=0.00805x elapsed=0:01:08.32    \nframe=   35 fps=0.5 q=25.4 size=     512KiB time=00:00:00.55 bitrate=7626.6kbits/s speed=0.00799x elapsed=0:01:08.85    \nframe=   35 fps=0.5 q=25.4 size=     512KiB time=00:00:00.55 bitrate=7626.6kbits/s speed=0.00793x elapsed=0:01:09.37    \nframe=   35 fps=0.5 q=25.4 size=     512KiB time=00:00:00.55 bitrate=7626.6kbits/s speed=0.00787x elapsed=0:01:09.90    \nframe=   36 fps=0.5 q=25.4 size=     512KiB time=00:00:00.56 bitrate=7402.3kbits/s speed=0.00804x elapsed=0:01:10.44    \nframe=   36 fps=0.5 q=25.4 size=     512KiB time=00:00:00.56 bitrate=7402.3kbits/s speed=0.00798x elapsed=0:01:11.02    \nframe=   36 fps=0.5 q=25.4 size=     512KiB time=00:00:00.56 bitrate=7402.3kbits/s speed=0.00792x elapsed=0:01:11.55    \nframe=   37 fps=0.5 q=26.4 size=     512KiB time=00:00:00.58 bitrate=7190.8kbits/s speed=0.00809x elapsed=0:01:12.07    \nframe=   37 fps=0.5 q=26.4 size=     512KiB time=00:00:00.58 bitrate=7190.8kbits/s speed=0.00803x elapsed=0:01:12.61    \nframe=   37 fps=0.5 q=26.4 size=     512KiB time=00:00:00.58 bitrate=7190.8kbits/s speed=0.00797x elapsed=0:01:13.15    \nframe=   38 fps=0.5 q=19.9 size=     512KiB time=00:00:00.60 bitrate=6991.1kbits/s speed=0.00814x elapsed=0:01:13.67    \nframe=   38 fps=0.5 q=19.9 size=     512KiB time=00:00:00.60 bitrate=6991.1kbits/s speed=0.00809x elapsed=0:01:14.19    \nframe=   39 fps=0.5 q=23.0 size=     512KiB time=00:00:00.61 bitrate=6802.1kbits/s speed=0.00825x elapsed=0:01:14.71    \nframe=   39 fps=0.5 q=23.0 size=     512KiB time=00:00:00.61 bitrate=6802.1kbits/s speed=0.00819x elapsed=0:01:15.24    \nframe=   39 fps=0.5 q=23.0 size=     512KiB time=00:00:00.61 bitrate=6802.1kbits/s speed=0.00814x elapsed=0:01:15.78    \nframe=   40 fps=0.5 q=25.5 size=     512KiB time=00:00:00.63 bitrate=6623.1kbits/s speed=0.0083x elapsed=0:01:16.30    \nframe=   40 fps=0.5 q=25.5 size=     512KiB time=00:00:00.63 bitrate=6623.1kbits/s speed=0.00824x elapsed=0:01:16.81    \nframe=   40 fps=0.5 q=25.5 size=     512KiB time=00:00:00.63 bitrate=6623.1kbits/s speed=0.00819x elapsed=0:01:17.35    \nframe=   40 fps=0.5 q=25.5 size=     512KiB time=00:00:00.63 bitrate=6623.1kbits/s speed=0.00813x elapsed=0:01:17.87    \nframe=   41 fps=0.5 q=25.3 size=     512KiB time=00:00:00.65 bitrate=6453.3kbits/s speed=0.00829x elapsed=0:01:18.39    \nframe=   42 fps=0.5 q=25.2 size=     512KiB time=00:00:00.66 bitrate=6292.0kbits/s speed=0.00845x elapsed=0:01:18.90    \nframe=   42 fps=0.5 q=25.2 size=     512KiB time=00:00:00.66 bitrate=6292.0kbits/s speed=0.00839x elapsed=0:01:19.43    \nframe=   42 fps=0.5 q=25.2 size=     512KiB time=00:00:00.66 bitrate=6292.0kbits/s speed=0.00833x elapsed=0:01:19.99    \nframe=   43 fps=0.5 q=19.6 size=     512KiB time=00:00:00.68 bitrate=6138.5kbits/s speed=0.00849x elapsed=0:01:20.52    \nframe=   44 fps=0.5 q=25.0 size=     512KiB time=00:00:00.70 bitrate=5992.4kbits/s speed=0.00864x elapsed=0:01:21.04    \nframe=   44 fps=0.5 q=25.0 size=     512KiB time=00:00:00.70 bitrate=5992.4kbits/s speed=0.00858x elapsed=0:01:21.56    \nframe=   45 fps=0.5 q=25.0 size=     512KiB time=00:00:00.71 bitrate=5853.0kbits/s speed=0.00873x elapsed=0:01:22.08    \nframe=   45 fps=0.5 q=25.0 size=     512KiB time=00:00:00.71 bitrate=5853.0kbits/s speed=0.00868x elapsed=0:01:22.60    \nframe=   46 fps=0.6 q=24.6 size=     512KiB time=00:00:00.73 bitrate=5720.0kbits/s speed=0.00882x elapsed=0:01:23.16    \nframe=   46 fps=0.5 q=24.6 size=     512KiB time=00:00:00.73 bitrate=5720.0kbits/s speed=0.00876x elapsed=0:01:23.71    \nframe=   46 fps=0.5 q=24.6 size=     512KiB time=00:00:00.73 bitrate=5720.0kbits/s speed=0.00871x elapsed=0:01:24.21    \nframe=   47 fps=0.6 q=24.0 size=     512KiB time=00:00:00.75 bitrate=5592.9kbits/s speed=0.00885x elapsed=0:01:24.73    \nframe=   47 fps=0.6 q=24.0 size=     512KiB time=00:00:00.75 bitrate=5592.9kbits/s speed=0.0088x elapsed=0:01:25.25    \nframe=   47 fps=0.5 q=24.0 size=     512KiB time=00:00:00.75 bitrate=5592.9kbits/s speed=0.00874x elapsed=0:01:25.79    \nframe=   48 fps=0.6 q=19.6 size=     512KiB time=00:00:00.76 bitrate=5471.3kbits/s speed=0.00888x elapsed=0:01:26.32    \nframe=   48 fps=0.6 q=19.6 size=     512KiB time=00:00:00.76 bitrate=5471.3kbits/s speed=0.00883x elapsed=0:01:26.84    \nframe=   49 fps=0.6 q=24.1 size=     512KiB time=00:00:00.78 bitrate=5354.9kbits/s speed=0.00897x elapsed=0:01:27.36    \nframe=   49 fps=0.6 q=24.1 size=     512KiB time=00:00:00.78 bitrate=5354.9kbits/s speed=0.00891x elapsed=0:01:27.89    \nframe=   50 fps=0.6 q=24.3 size=     512KiB time=00:00:00.80 bitrate=5243.3kbits/s speed=0.00905x elapsed=0:01:28.40    \nframe=   50 fps=0.6 q=24.3 size=     512KiB time=00:00:00.80 bitrate=5243.3kbits/s speed=0.009x elapsed=0:01:28.92    \nframe=   50 fps=0.6 q=24.3 size=     512KiB time=00:00:00.80 bitrate=5243.3kbits/s speed=0.00894x elapsed=0:01:29.43    \nframe=   51 fps=0.6 q=23.9 size=     512KiB time=00:00:00.81 bitrate=5136.3kbits/s speed=0.00908x elapsed=0:01:29.95    \nframe=   52 fps=0.6 q=23.7 size=     512KiB time=00:00:00.83 bitrate=5033.6kbits/s speed=0.00921x elapsed=0:01:30.47    \nframe=   52 fps=0.6 q=23.7 size=     512KiB time=00:00:00.83 bitrate=5033.6kbits/s speed=0.00916x elapsed=0:01:30.98    \nframe=   53 fps=0.6 q=19.7 size=     512KiB time=00:00:00.85 bitrate=4934.9kbits/s speed=0.00929x elapsed=0:01:31.50    \nframe=   53 fps=0.6 q=19.7 size=     512KiB time=00:00:00.85 bitrate=4934.9kbits/s speed=0.00924x elapsed=0:01:32.02    \nframe=   54 fps=0.6 q=24.1 size=     768KiB time=00:00:00.86 bitrate=7259.8kbits/s speed=0.00936x elapsed=0:01:32.54    \nframe=   55 fps=0.6 q=25.2 size=     768KiB time=00:00:00.88 bitrate=7122.8kbits/s speed=0.00949x elapsed=0:01:33.07    \nframe=   55 fps=0.6 q=25.2 size=     768KiB time=00:00:00.88 bitrate=7122.8kbits/s speed=0.00944x elapsed=0:01:33.57    \nframe=   55 fps=0.6 q=25.2 size=     768KiB time=00:00:00.88 bitrate=7122.8kbits/s speed=0.00939x elapsed=0:01:34.09    \nframe=   56 fps=0.6 q=24.2 size=     768KiB time=00:00:00.90 bitrate=6990.9kbits/s speed=0.00951x elapsed=0:01:34.60    \nframe=   57 fps=0.6 q=23.9 size=     768KiB time=00:00:00.91 bitrate=6863.8kbits/s speed=0.00964x elapsed=0:01:35.12    \nframe=   58 fps=0.6 q=19.2 size=     768KiB time=00:00:00.93 bitrate=6741.2kbits/s speed=0.00976x elapsed=0:01:35.64    \nframe=   59 fps=0.6 q=22.5 size=     768KiB time=00:00:00.95 bitrate=6623.0kbits/s speed=0.00988x elapsed=0:01:36.16    \nframe=   60 fps=0.6 q=24.2 size=     768KiB time=00:00:00.96 bitrate=6508.8kbits/s speed=0.01x elapsed=0:01:36.66    \nframe=   60 fps=0.6 q=24.2 size=     768KiB time=00:00:00.96 bitrate=6508.8kbits/s speed=0.00995x elapsed=0:01:37.19    \nframe=   62 fps=0.6 q=19.2 size=     768KiB time=00:00:01.00 bitrate=6291.8kbits/s speed=0.0102x elapsed=0:01:37.70    \nframe=   63 fps=0.6 q=21.7 size=     768KiB time=00:00:01.01 bitrate=6188.7kbits/s speed=0.0104x elapsed=0:01:38.22    \nframe=   64 fps=0.6 q=24.0 size=     768KiB time=00:00:01.03 bitrate=6088.8kbits/s speed=0.0105x elapsed=0:01:38.73    \nframe=   65 fps=0.7 q=23.8 size=     768KiB time=00:00:01.05 bitrate=5992.2kbits/s speed=0.0106x elapsed=0:01:39.25    \nframe=   65 fps=0.7 q=23.8 size=     768KiB time=00:00:01.05 bitrate=5992.2kbits/s speed=0.0105x elapsed=0:01:39.76    \nframe=   66 fps=0.7 q=24.1 size=     768KiB time=00:00:01.06 bitrate=5898.6kbits/s speed=0.0106x elapsed=0:01:40.28    \nframe=   67 fps=0.7 q=19.3 size=     768KiB time=00:00:01.08 bitrate=5807.8kbits/s speed=0.0107x elapsed=0:01:40.82    \nframe=   69 fps=0.7 q=25.2 size=    1024KiB time=00:00:01.11 bitrate=7512.5kbits/s speed=0.011x elapsed=0:01:41.33    \nframe=   69 fps=0.7 q=25.2 size=    1024KiB time=00:00:01.11 bitrate=7512.5kbits/s speed=0.011x elapsed=0:01:41.85    \nframe=   70 fps=0.7 q=24.3 size=    1024KiB time=00:00:01.13 bitrate=7402.0kbits/s speed=0.0111x elapsed=0:01:42.35    \nframe=   71 fps=0.7 q=24.4 size=    1024KiB time=00:00:01.15 bitrate=7294.7kbits/s speed=0.0112x elapsed=0:01:42.87    \nframe=   72 fps=0.7 q=19.2 size=    1024KiB time=00:00:01.16 bitrate=7190.5kbits/s speed=0.0113x elapsed=0:01:43.39    \nframe=   73 fps=0.7 q=20.8 size=    1024KiB time=00:00:01.18 bitrate=7089.3kbits/s speed=0.0114x elapsed=0:01:43.90    \nframe=   74 fps=0.7 q=25.7 size=    1024KiB time=00:00:01.20 bitrate=6990.8kbits/s speed=0.0115x elapsed=0:01:44.42    \nframe=   75 fps=0.7 q=25.5 size=    1024KiB time=00:00:01.21 bitrate=6895.0kbits/s speed=0.0116x elapsed=0:01:44.94    \nframe=   76 fps=0.7 q=25.8 size=    1024KiB time=00:00:01.23 bitrate=6801.9kbits/s speed=0.0117x elapsed=0:01:45.45    \nframe=   77 fps=0.7 q=19.3 size=    1024KiB time=00:00:01.25 bitrate=6711.2kbits/s speed=0.0118x elapsed=0:01:45.96    \nframe=   78 fps=0.7 q=20.9 size=    1024KiB time=00:00:01.26 bitrate=6622.9kbits/s speed=0.0119x elapsed=0:01:46.48    \nframe=   79 fps=0.7 q=25.5 size=    1024KiB time=00:00:01.28 bitrate=6536.9kbits/s speed=0.012x elapsed=0:01:47.00    \nframe=   80 fps=0.7 q=25.8 size=    1024KiB time=00:00:01.30 bitrate=6453.0kbits/s speed=0.0121x elapsed=0:01:47.51    \nframe=   81 fps=0.7 q=26.4 size=    1024KiB time=00:00:01.31 bitrate=6371.4kbits/s speed=0.0122x elapsed=0:01:48.03    \nframe=   82 fps=0.8 q=19.8 size=    1024KiB time=00:00:01.33 bitrate=6291.7kbits/s speed=0.0123x elapsed=0:01:48.55    \nframe=   83 fps=0.8 q=24.5 size=    1024KiB time=00:00:01.35 bitrate=6214.0kbits/s speed=0.0124x elapsed=0:01:49.06    \nframe=   84 fps=0.8 q=25.9 size=    1280KiB time=00:00:01.36 bitrate=7672.8kbits/s speed=0.0125x elapsed=0:01:49.58    \nframe=   84 fps=0.8 q=25.9 size=    1280KiB time=00:00:01.36 bitrate=7672.8kbits/s speed=0.0124x elapsed=0:01:50.10    \nframe=   85 fps=0.8 q=25.5 size=    1280KiB time=00:00:01.38 bitrate=7580.3kbits/s speed=0.0125x elapsed=0:01:50.62    \nframe=   86 fps=0.8 q=25.0 size=    1280KiB time=00:00:01.40 bitrate=7490.1kbits/s speed=0.0126x elapsed=0:01:51.14    \nframe=   87 fps=0.8 q=19.1 size=    1280KiB time=00:00:01.41 bitrate=7402.0kbits/s speed=0.0127x elapsed=0:01:51.66    \nframe=   88 fps=0.8 q=22.5 size=    1280KiB time=00:00:01.43 bitrate=7315.9kbits/s speed=0.0128x elapsed=0:01:52.17    \nframe=   89 fps=0.8 q=25.5 size=    1280KiB time=00:00:01.45 bitrate=7231.8kbits/s speed=0.0129x elapsed=0:01:52.68    \nframe=   91 fps=0.8 q=24.0 size=    1280KiB time=00:00:01.48 bitrate=7069.3kbits/s speed=0.0131x elapsed=0:01:53.20    \nframe=   92 fps=0.8 q=24.7 size=    1280KiB time=00:00:01.50 bitrate=6990.7kbits/s speed=0.0132x elapsed=0:01:53.72    \nframe=   92 fps=0.8 q=24.7 size=    1280KiB time=00:00:01.50 bitrate=6990.7kbits/s speed=0.0131x elapsed=0:01:54.24    \nframe=   94 fps=0.8 q=24.8 size=    1280KiB time=00:00:01.53 bitrate=6838.8kbits/s speed=0.0134x elapsed=0:01:54.75    \nframe=   95 fps=0.8 q=19.3 size=    1280KiB time=00:00:01.55 bitrate=6765.2kbits/s speed=0.0134x elapsed=0:01:55.27    \nframe=   96 fps=0.8 q=23.9 size=    1280KiB time=00:00:01.56 bitrate=6693.3kbits/s speed=0.0135x elapsed=0:01:55.79    \nframe=   97 fps=0.8 q=25.1 size=    1280KiB time=00:00:01.58 bitrate=6622.8kbits/s speed=0.0136x elapsed=0:01:56.29    \nframe=   98 fps=0.8 q=24.9 size=    1280KiB time=00:00:01.60 bitrate=6553.8kbits/s speed=0.0137x elapsed=0:01:56.81    \nframe=   99 fps=0.8 q=24.7 size=    1280KiB time=00:00:01.61 bitrate=6486.3kbits/s speed=0.0138x elapsed=0:01:57.33    \nframe=  101 fps=0.9 q=22.4 size=    1536KiB time=00:00:01.65 bitrate=7626.2kbits/s speed=0.014x elapsed=0:01:57.84    \nframe=  102 fps=0.9 q=26.7 size=    1536KiB time=00:00:01.66 bitrate=7550.0kbits/s speed=0.0141x elapsed=0:01:58.36    \nframe=  103 fps=0.9 q=25.5 size=    1536KiB time=00:00:01.68 bitrate=7475.2kbits/s speed=0.0142x elapsed=0:01:58.88    \nframe=  104 fps=0.9 q=19.2 size=    1536KiB time=00:00:01.70 bitrate=7401.9kbits/s speed=0.0142x elapsed=0:01:59.39    \nframe=  106 fps=0.9 q=25.4 size=    1536KiB time=00:00:01.73 bitrate=7259.6kbits/s speed=0.0145x elapsed=0:01:59.91    \nframe=  106 fps=0.9 q=25.4 size=    1536KiB time=00:00:01.73 bitrate=7259.6kbits/s speed=0.0144x elapsed=0:02:00.41    \nframe=  108 fps=0.9 q=25.4 size=    1536KiB time=00:00:01.76 bitrate=7122.6kbits/s speed=0.0146x elapsed=0:02:00.94    \nframe=  109 fps=0.9 q=19.3 size=    1536KiB time=00:00:01.78 bitrate=7056.0kbits/s speed=0.0147x elapsed=0:02:01.45    \nframe=  111 fps=0.9 q=26.4 size=    1536KiB time=00:00:01.81 bitrate=6926.6kbits/s speed=0.0149x elapsed=0:02:01.97    \nframe=  112 fps=0.9 q=25.8 size=    1536KiB time=00:00:01.83 bitrate=6863.6kbits/s speed=0.015x elapsed=0:02:02.48    \nframe=  114 fps=0.9 q=19.3 size=    1536KiB time=00:00:01.86 bitrate=6741.0kbits/s speed=0.0152x elapsed=0:02:03.00    \nframe=  115 fps=0.9 q=23.1 size=    1792KiB time=00:00:01.88 bitrate=7794.9kbits/s speed=0.0152x elapsed=0:02:03.51    \nframe=  116 fps=0.9 q=26.0 size=    1792KiB time=00:00:01.90 bitrate=7726.5kbits/s speed=0.0153x elapsed=0:02:04.03    \nframe=  118 fps=0.9 q=19.5 size=    1792KiB time=00:00:01.93 bitrate=7593.3kbits/s speed=0.0155x elapsed=0:02:04.55    \nframe=  120 fps=1.0 q=25.6 size=    1792KiB time=00:00:01.96 bitrate=7464.6kbits/s speed=0.0157x elapsed=0:02:05.07    \nframe=  122 fps=1.0 q=25.8 size=    1792KiB time=00:00:02.00 bitrate=7340.2kbits/s speed=0.0159x elapsed=0:02:05.57    \nframe=  124 fps=1.0 q=23.3 size=    1792KiB time=00:00:02.03 bitrate=7219.9kbits/s speed=0.0161x elapsed=0:02:06.09    \nframe=  126 fps=1.0 q=18.9 size=    1792KiB time=00:00:02.06 bitrate=7103.4kbits/s speed=0.0163x elapsed=0:02:06.62    \nframe=  128 fps=1.0 q=24.6 size=    1792KiB time=00:00:02.10 bitrate=6990.7kbits/s speed=0.0165x elapsed=0:02:07.12    \nframe=  130 fps=1.0 q=24.9 size=    1792KiB time=00:00:02.13 bitrate=6881.4kbits/s speed=0.0167x elapsed=0:02:07.64    \nframe=  132 fps=1.0 q=22.1 size=    2048KiB time=00:00:02.16 bitrate=7743.5kbits/s speed=0.0169x elapsed=0:02:08.16    \nframe=  134 fps=1.0 q=25.3 size=    2048KiB time=00:00:02.20 bitrate=7626.2kbits/s speed=0.0171x elapsed=0:02:08.67    \nframe=  136 fps=1.1 q=18.9 size=    2048KiB time=00:00:02.23 bitrate=7512.3kbits/s speed=0.0173x elapsed=0:02:09.19    \nframe=  138 fps=1.1 q=25.0 size=    2048KiB time=00:00:02.26 bitrate=7401.9kbits/s speed=0.0175x elapsed=0:02:09.71    \nframe=  140 fps=1.1 q=24.3 size=    2048KiB time=00:00:02.30 bitrate=7294.6kbits/s speed=0.0177x elapsed=0:02:10.23    \nframe=  143 fps=1.1 q=24.5 size=    2048KiB time=00:00:02.35 bitrate=7139.4kbits/s speed=0.018x elapsed=0:02:10.75    \nframe=  145 fps=1.1 q=24.7 size=    2048KiB time=00:00:02.38 bitrate=7039.5kbits/s speed=0.0182x elapsed=0:02:11.27    \nframe=  148 fps=1.1 q=24.2 size=    2304KiB time=00:00:02.43 bitrate=7756.7kbits/s speed=0.0185x elapsed=0:02:11.78    \nframe=  152 fps=1.1 q=23.5 size=    2304KiB time=00:00:02.50 bitrate=7549.9kbits/s speed=0.0189x elapsed=0:02:12.30    \nframe=  155 fps=1.2 q=24.1 size=    2304KiB time=00:00:02.55 bitrate=7401.9kbits/s speed=0.0192x elapsed=0:02:12.81    \nframe=  158 fps=1.2 q=23.8 size=    2304KiB time=00:00:02.60 bitrate=7259.5kbits/s speed=0.0195x elapsed=0:02:13.33    \nframe=  162 fps=1.2 q=22.9 size=    2560KiB time=00:00:02.66 bitrate=7864.5kbits/s speed=0.0199x elapsed=0:02:13.85    \nframe=  165 fps=1.2 q=23.7 size=    2560KiB time=00:00:02.71 bitrate=7719.7kbits/s speed=0.0202x elapsed=0:02:14.35    \nframe=  169 fps=1.3 q=23.6 size=    2560KiB time=00:00:02.78 bitrate=7534.8kbits/s speed=0.0206x elapsed=0:02:14.87    \nframe=  173 fps=1.3 q=23.7 size=    2560KiB time=00:00:02.85 bitrate=7358.6kbits/s speed=0.021x elapsed=0:02:15.40    \nframe=  176 fps=1.3 q=18.4 size=    2560KiB time=00:00:02.90 bitrate=7231.7kbits/s speed=0.0213x elapsed=0:02:15.90    \nframe=  179 fps=1.3 q=23.2 size=    2560KiB time=00:00:02.95 bitrate=7109.1kbits/s speed=0.0216x elapsed=0:02:16.42    \nframe=  183 fps=1.3 q=23.8 size=    2816KiB time=00:00:03.01 bitrate=7647.2kbits/s speed=0.022x elapsed=0:02:16.94    \nframe=  185 fps=1.3 q=23.7 size=    2816KiB time=00:00:03.05 bitrate=7563.6kbits/s speed=0.0222x elapsed=0:02:17.46    \nframe=  188 fps=1.4 q=24.2 size=    2816KiB time=00:00:03.10 bitrate=7441.6kbits/s speed=0.0225x elapsed=0:02:17.97    \nframe=  192 fps=1.4 q=24.0 size=    2816KiB time=00:00:03.16 bitrate=7285.0kbits/s speed=0.0229x elapsed=0:02:18.48    \nframe=  195 fps=1.4 q=25.7 size=    3072KiB time=00:00:03.21 bitrate=7823.7kbits/s speed=0.0231x elapsed=0:02:19.00    \nframe=  198 fps=1.4 q=25.6 size=    3072KiB time=00:00:03.26 bitrate=7703.9kbits/s speed=0.0234x elapsed=0:02:19.52    \nframe=  203 fps=1.4 q=25.0 size=    3072KiB time=00:00:03.35 bitrate=7512.3kbits/s speed=0.0239x elapsed=0:02:20.04    \nframe=  208 fps=1.5 q=25.7 size=    3072KiB time=00:00:03.43 bitrate=7330.0kbits/s speed=0.0244x elapsed=0:02:20.54    \nframe=  213 fps=1.5 q=24.8 size=    3328KiB time=00:00:03.51 bitrate=7752.6kbits/s speed=0.0249x elapsed=0:02:21.06    \nframe=  218 fps=1.5 q=25.4 size=    3328KiB time=00:00:03.60 bitrate=7573.1kbits/s speed=0.0254x elapsed=0:02:21.58    \nframe=  223 fps=1.6 q=25.3 size=    3328KiB time=00:00:03.68 bitrate=7401.8kbits/s speed=0.0259x elapsed=0:02:22.09    \nframe=  228 fps=1.6 q=25.1 size=    3584KiB time=00:00:03.76 bitrate=7794.8kbits/s speed=0.0264x elapsed=0:02:22.62    \nframe=  234 fps=1.6 q=26.0 size=    3584KiB time=00:00:03.86 bitrate=7593.2kbits/s speed=0.027x elapsed=0:02:23.12    \nframe=  240 fps=1.7 q=25.4 size=    3840KiB time=00:00:03.96 bitrate=7930.5kbits/s speed=0.0276x elapsed=0:02:23.64    \nframe=  246 fps=1.7 q=25.7 size=    3840KiB time=00:00:04.06 bitrate=7735.5kbits/s speed=0.0282x elapsed=0:02:24.16    \nframe=  252 fps=1.7 q=18.6 size=    4096KiB time=00:00:04.16 bitrate=8053.1kbits/s speed=0.0288x elapsed=0:02:24.67    \nframe=  259 fps=1.8 q=26.2 size=    4096KiB time=00:00:04.28 bitrate=7833.8kbits/s speed=0.0295x elapsed=0:02:25.19    \nframe=  264 fps=1.8 q=26.6 size=    4352KiB time=00:00:04.36 bitrate=8164.6kbits/s speed=0.03x elapsed=0:02:25.71    \nframe=  270 fps=1.8 q=26.0 size=    4352KiB time=00:00:04.46 bitrate=7981.8kbits/s speed=0.0305x elapsed=0:02:26.21    \nframe=  276 fps=1.9 q=26.4 size=    4352KiB time=00:00:04.56 bitrate=7807.0kbits/s speed=0.0311x elapsed=0:02:26.73    \nframe=  283 fps=1.9 q=24.7 size=    4608KiB time=00:00:04.68 bitrate=8060.3kbits/s speed=0.0318x elapsed=0:02:27.25    \nframe=  289 fps=2.0 q=26.5 size=    4608KiB time=00:00:04.78 bitrate=7891.8kbits/s speed=0.0324x elapsed=0:02:27.76    \nframe=  295 fps=2.0 q=26.4 size=    4608KiB time=00:00:04.88 bitrate=7730.2kbits/s speed=0.0329x elapsed=0:02:28.28    \n[mp4 @ 000001cad413a700] Starting second pass: moving the moov atom to the beginning of the file\n[out#0/mp4 @ 000001cad413a600] video:4849KiB audio:0KiB subtitle:0KiB other streams:0KiB global headers:2KiB muxing overhead: 0.139728%\nframe=  300 fps=2.0 q=26.3 Lsize=    4856KiB time=00:00:04.96 bitrate=8009.1kbits/s speed=0.0334x elapsed=0:02:28.53    \nx265 [info]: frame I:      2, Avg QP:20.85  kb/s: 50561.76\nx265 [info]: frame P:     62, Avg QP:19.37  kb/s: 21316.54\nx265 [info]: frame B:    236, Avg QP:24.82  kb/s: 4068.03 \nx265 [info]: Weighted P-Frames: Y:0.0% UV:0.0%\n\nencoded 300 frames in 148.23s (2.02 fps), 7942.68 kb/s, Avg QP:23.67\n",
  "seconds": 148.74072003364563,
  "probe_out": {}
}